HIERARCHY
ROOT Hips
{
    OFFSET 11.897454471783497 82.29194181601312 -16.413971331104964
    CHANNELS 6 Xposition Yposition Zposition Zrotation Xrotation Yrotation
    JOINT RightUpLeg
    {
        OFFSET -11.897454471783497 0.0 0.0
        CHANNELS 3 Zrotation Xrotation Yrotation
        JOINT RightLeg
        {
            OFFSET 0.0 -41.257013488250706 0.0
            CHANNELS 3 Zrotation Xrotation Yrotation
            JOINT RightFoot
            {
                OFFSET 0.0 -41.034928327762415 0.0
                CHANNELS 3 Zrotation Xrotation Yrotation
                End Site RightFoot_End
                {
                    OFFSET 0.0 0.0 16.413971331104964
                }
            }
        }
    }
    JOINT LeftUpLeg
    {
        OFFSET 11.897454471783497 0.0 0.0
        CHANNELS 3 Zrotation Xrotation Yrotation
        JOINT LeftLeg
        {
            OFFSET 0.0 -41.257013488250706 0.0
            CHANNELS 3 Zrotation Xrotation Yrotation
            JOINT LeftFoot
            {
                OFFSET 0.0 -41.034928327762415 0.0
                CHANNELS 3 Zrotation Xrotation Yrotation
                End Site LeftFoot_End
                {
                    OFFSET 0.0 0.0 16.413971331104964
                }
            }
        }
    }
    JOINT Spine
    {
        OFFSET 0.0 21.5233499582832 0.0
        CHANNELS 3 Zrotation Xrotation Yrotation
        JOINT Spine3
        {
            OFFSET 0.0 24.522905280373465 0.0
            CHANNELS 3 Zrotation Xrotation Yrotation
            JOINT Neck
            {
                OFFSET 0.0 13.73111050398515 0.0
                CHANNELS 3 Zrotation Xrotation Yrotation
                End Site Head
                {
                    OFFSET 0.0 5.492444201594061 0.0
                }
            }
            JOINT LeftArm
            {
                OFFSET 14.392108185989382 0.0 0.0
                CHANNELS 3 Zrotation Xrotation Yrotation
                JOINT LeftForeArm
                {
                    OFFSET 27.30276923667062 0.0 0.0
                    CHANNELS 3 Zrotation Xrotation Yrotation
                    JOINT LeftHand
                    {
                        OFFSET 23.123887139023314 0.0 0.0
                        CHANNELS 3 Zrotation Xrotation Yrotation
                        End Site LeftWristEndSite
                        {
                            OFFSET 9.249554855609325 0.0 0.0
                        }
                    }
                }
            }
            JOINT RightArm
            {
                OFFSET -14.392108185989382 0.0 0.0
                CHANNELS 3 Zrotation Xrotation Yrotation
                JOINT RightForeArm
                {
                    OFFSET -27.30276923667062 0.0 0.0
                    CHANNELS 3 Zrotation Xrotation Yrotation
                    JOINT RightHand
                    {
                        OFFSET -23.123887139023314 0.0 0.0
                        CHANNELS 3 Zrotation Xrotation Yrotation
                        End Site RightWristEndSite
                        {
                            OFFSET -9.249554855609325 0.0 0.0
                        }
                    }
                }
            }
        }
    }
}
MOTION
Frames: 7
Frame Time: 0.03333333333333333
25.124513422177618 62.75110759417708 45.39273880728943 -27.06310398152519 -23.490753930803894 -65.74540659360315 -26.623250112344536 4.230638024432553 1.8282457871242819 -2.3858181723040968 45.3461813261961 13.778485969126928 -7.951386703658791e-16 -1.9878466759146985e-16 6.460501696722767e-15 7.052482157560851 -22.481411910156794 6.086954056417337 -35.888057659294496 68.00990120949348 18.7730024751354 3.1060104311167156e-18 7.219170857578299e-36 2.663403944682584e-16 -1.4536218500183329 3.635568764769032 -0.5363469643416316 -6.9079154800738694e-15 -8.168056081179066e-15 15.581614913851734 0.0 0.0 2.3854160110976384e-15 -35.05568337158248 -38.03303650148315 10.803623299836598 -118.70838938996461 1.6212221535474e-15 2.7363418665485902e-15 0.0 0.0 0.0 137.17066746635626 8.589330379231004 151.11016339792158 10.5686122642857 -4.631648369435514e-15 -1.554226378325153e-14 1.4908850069360234e-15 0.0 0.0
25.383826231957958 63.398768536048735 45.239933965824875 -27.721597991768963 -26.34466618437533 -64.32852109289273 -27.38417167034915 6.085038871463298 2.3390470218999764 -5.106473603537126 46.47574450322746 15.165741100980371 3.975693351829396e-16 2.069018577211012e-33 5.963540027744094e-16 2.8080799063496835 -17.587582907669592 3.8341684637645583 -33.462468916426445 64.02111179471996 17.63861668595815 0.0 0.0 -1.2921003393445538e-15 -0.7512156337913627 3.439122893303076 -0.6680802960000999 -3.4042617102051456e-15 1.027575939118611e-15 19.537236923696877 0.0 0.0 -1.5902773407317584e-15 -34.978945374995014 -34.215390753507386 8.118826635162812 -117.66516193937261 1.3673268266812541e-14 1.0315214456102327e-14 0.0 0.0 0.0 141.15904143794418 8.394198909137708 148.71957622740436 19.010847362459327 -2.3490257632094287e-15 5.230568251113995e-15 3.975693351829396e-16 5.517382872562698e-33 1.5902773407317584e-15
25.71418927997139 64.22388490040116 45.04526146499392 -27.271404421487 -26.749374514487616 -61.644207251423026 -21.3081783240265 2.7283410521446303 1.1837530862344205 -9.837229971622698 52.502413633411834 15.577345916920553 -7.951386703658792e-16 1.3103784322336408e-32 -1.888454342118963e-15 -2.040303016212137 -13.975761358630303 1.5840004153493628 -34.537246203792016 58.08408908716376 21.801969731227572 0.0 0.0 1.987846675914698e-16 -0.5938755611854875 3.4881151973997837 -0.6776565247776174 -2.956003127545874e-15 6.708421084308333e-15 22.5028660752877 -1.5902773407317584e-15 2.2069531490250793e-32 -1.5902773407317584e-15 -26.525349015210008 -42.88148780644682 29.042245467186547 -122.6939553163521 -5.439148327150558e-15 3.311840474197013e-15 0.0 0.0 0.0 142.3177508460747 -10.242943720449182 96.1778812777605 43.509972558360246 3.834684050461666e-15 5.3186363459723175e-15 -7.951386703658792e-16 0.0 0.0
25.734383302906295 64.27432159084185 45.03336176564735 -27.535350141584857 -26.564826413597803 -62.70846069906846 -22.121488720740768 3.0521717396575 1.3038591509324071 -10.71533082105517 52.12687806077087 16.96804831194383 -5.963540027744094e-16 3.879409832270647e-33 -7.454425034680117e-16 -3.1341527942844785 -12.554407302085293 1.0725626455012078 -32.13238099521213 56.326109751182976 20.290361912747038 0.0 0.0 1.7890620083232284e-15 -0.42742023113365885 3.4290307717208273 -0.6705859773387302 -1.1308169146384977e-15 5.449888334270453e-15 23.444338112360125 -1.5902773407317584e-15 0.0 0.0 -26.57492646638623 -42.67192896987245 29.078820755886163 -122.53497273005786 1.6411576525129577e-14 3.471155582565747e-15 0.0 0.0 0.0 142.45674571381863 -10.333935203054972 96.59735954091335 43.108424470925904 5.058395903580098e-15 -8.837471002548405e-15 0.0 0.0 0.0
25.98742862898505 64.90632883476943 44.88425015420183 -28.450409418885638 -25.34570978453403 -57.38235623271514 -22.151207034802813 10.04979751973752 2.94483721551574 -7.773960259936762 45.10295874710283 14.378088077579571 0.0 0.0 5.963540027744094e-16 -5.047864493266655 -8.601404564014727 -0.15365381548596874 -29.632738768606963 53.497136544006835 21.168765711342722 -4.4139062980501586e-32 -3.1805546814635164e-15 -1.5902773407317582e-15 -1.155215878430924 5.526651568412746 -0.7895343964897643 1.7134647978378005e-15 -6.125989774206991e-15 31.253053876060594 -1.6552148617688095e-32 3.975693351829396e-16 4.770832022195275e-15 -14.86027575062421 -50.96829005126869 47.69084679119506 -127.22342632508789 4.28469448957747e-15 -5.6763574182641055e-15 0.0 0.0 0.0 -6.939517819527397 -0.7589803104710532 -68.27075395030269 153.13877906615102 -7.66462475451575e-15 4.709665808388142e-15 3.1805546814635168e-15 0.0 0.0
25.87697721386279 64.63046484019955 44.94933568156776 -26.5150340565098 -26.344620302206113 -52.212542661953904 -20.851070938786965 14.346333078465479 3.071359598849943 -19.102842670256816 39.977495553597954 19.58822959119826 3.1805546814635156e-15 7.95138670365879e-16 2.3854160110976368e-15 -0.6694816757160731 -11.533228658134938 1.2691190981285645 -25.89322400475104 52.972017198292924 13.908105362507346 0.0 0.0 2.9817700138720468e-15 1.0182028503884009 1.7658804174425144 -0.34269394045214047 -7.450437725609805e-15 2.777683964732488e-15 32.84671385847395 0.0 0.0 0.0 -10.733806481377416 -42.595264764064346 56.672364530429185 -134.35867975998698 5.863183085982025e-15 -2.467143373898701e-15 0.0 0.0 -6.3611093629270335e-15 178.6897310127075 -52.211023010597295 131.26073346199908 117.11175365701561 -1.6661116375989708e-14 2.860449163330534e-15 -1.1927080055488188e-15 3.310429723537619e-32 -3.1805546814635168e-15
24.81118901338469 61.96854701846891 45.57737097664943 -26.81876250991411 -29.37621521941751 -48.61335791840205 -25.74270976312544 25.111039384486517 6.204029761737916 -20.10454326569359 27.987656018527325 16.393895032191104 0.0 0.0 3.1805546814635168e-15 -0.9174247688420973 -5.680065132201149 0.5849971082377516 -20.2758644201345 44.337353966530706 7.025402965150914 0.0 0.0 0.0 4.40317148439069 -0.6880304004653155 0.19915460039078622 4.273617631097805e-15 -3.822689970289685e-15 28.995508797758628 0.0 0.0 0.0 -1.5755969315064837 -31.940361698822798 76.24816601277561 -137.4810165187136 2.3064901123067134e-15 5.928221966909584e-15 0.0 0.0 0.0 -161.2188077529975 -39.24122261008333 129.7356667312764 122.37124562218725 -2.8825656929161066e-15 -1.3587709342902605e-15 -1.5902773407317588e-15 -4.4139062980501586e-32 3.1805546814635176e-15
